<?xml version="1.0" encoding="UTF-8"?>
<!DOCTYPE svg PUBLIC "-//W3C//DTD SVG 1.1//EN" "http://www.w3.org/Graphics/SVG/1.1/DTD/svg11.dtd">
<svg xmlns="http://www.w3.org/2000/svg" version="1.1" width="192px" height="192px" style="shape-rendering:geometricPrecision; text-rendering:geometricPrecision; image-rendering:optimizeQuality; fill-rule:evenodd; clip-rule:evenodd" xmlns:xlink="http://www.w3.org/1999/xlink">
<g><path style="opacity:1" fill="#4b96af" d="M -0.5,-0.5 C 63.5,-0.5 127.5,-0.5 191.5,-0.5C 191.5,63.5 191.5,127.5 191.5,191.5C 127.5,191.5 63.5,191.5 -0.5,191.5C -0.5,127.5 -0.5,63.5 -0.5,-0.5 Z"/></g>
<g><path style="opacity:1" fill="#2f6b92" d="M 162.5,42.5 C 162.5,42.8333 162.5,43.1667 162.5,43.5C 162.5,44.8333 162.5,46.1667 162.5,47.5C 162.5,80.5 162.5,113.5 162.5,146.5C 160.632,154.037 155.965,159.037 148.5,161.5C 130.83,161.667 113.164,161.5 95.5,161C 100.519,160.665 105.519,160.165 110.5,159.5C 115.562,157.379 120.729,155.712 126,154.5C 127.813,155.609 128.646,154.942 128.5,152.5C 130.833,152.5 133.167,152.5 135.5,152.5C 135.48,150.857 136.147,149.524 137.5,148.5C 139.5,147.5 141.5,146.5 143.5,145.5C 142.833,145.167 142.167,144.833 141.5,144.5C 142.853,143.476 143.52,142.143 143.5,140.5C 144.5,140.5 145.5,140.5 146.5,140.5C 148.214,137.03 149.547,133.363 150.5,129.5C 149.391,128.035 149.891,127.035 152,126.5C 152.118,121.171 152.951,116.005 154.5,111C 153.516,105.65 153.516,100.317 154.5,95C 153.833,94.3333 153.167,93.6667 152.5,93C 152.659,89.4921 152.659,85.9921 152.5,82.5C 150.638,77.4828 147.805,73.1495 144,69.5C 143.667,70.1667 143.333,70.8333 143,71.5C 141.811,67.1421 138.977,64.8088 134.5,64.5C 116.357,44.6384 95.0237,40.4718 70.5,52C 58.8094,59.8805 51.476,70.7139 48.5,84.5C 47.9424,86.5934 46.6091,88.0934 44.5,89C 44.3746,92.7581 44.7079,96.5914 45.5,100.5C 44.8793,104.013 44.2127,107.513 43.5,111C 46.0185,121.889 49.5185,132.389 54,142.5C 55.0113,143.337 56.1779,143.67 57.5,143.5C 58.2057,147.406 60.5391,149.572 64.5,150C 72.6342,156.385 81.9675,160.051 92.5,161C 75.8367,161.5 59.17,161.667 42.5,161.5C 41.8333,161.5 41.1667,161.5 40.5,161.5C 39.0351,160.263 37.3684,159.263 35.5,158.5C 34.396,156.611 33.0627,154.945 31.5,153.5C 31.0679,152.29 30.4013,151.29 29.5,150.5C 28.5132,115.21 28.1799,79.8765 28.5,44.5C 30.2078,37.2931 34.5412,32.4598 41.5,30C 77.5,29.3333 113.5,29.3333 149.5,30C 156.318,31.6527 160.652,35.8194 162.5,42.5 Z"/></g>
<g><path style="opacity:1" fill="#4a89a3" d="M 162.5,43.5 C 162.5,43.1667 162.5,42.8333 162.5,42.5C 166.077,44.9221 168.743,48.2554 170.5,52.5C 170.291,53.086 169.957,53.586 169.5,54C 170.94,56.7949 171.607,59.7949 171.5,63C 171.598,94.1059 171.432,125.273 171,156.5C 169.424,172.571 161.09,180.904 146,181.5C 113.209,180.395 80.3759,180.228 47.5,181C 33.2822,176.727 25.2822,167.227 23.5,152.5C 25.1142,120.507 25.6142,88.5068 25,56.5C 26.1095,52.3531 27.2761,48.3531 28.5,44.5C 28.1799,79.8765 28.5132,115.21 29.5,150.5C 30.7651,159.798 34.0984,167.631 39.5,174C 42.422,174.417 45.0887,175.417 47.5,177C 51.3542,177.354 55.1875,177.854 59,178.5C 87.5012,177.197 115.835,177.197 144,178.5C 146.464,177.839 148.964,177.339 151.5,177C 155.759,175.066 159.759,172.732 163.5,170C 165.254,165.216 166.754,160.383 168,155.5C 168.062,127.322 168.228,99.1557 168.5,71C 168.333,65.1667 168.167,59.3333 168,53.5C 166.781,49.7932 164.948,46.4599 162.5,43.5 Z"/></g>
<g><path style="opacity:1" fill="#e8c093" d="M 134.5,64.5 C 136.754,68.0066 138.754,71.6733 140.5,75.5C 141.925,79.3778 142.925,83.3778 143.5,87.5C 143.698,94.9237 143.032,102.257 141.5,109.5C 139.283,114.929 136.283,119.929 132.5,124.5C 122.595,136.115 109.928,141.782 94.5,141.5C 89.0286,141.57 83.6953,140.903 78.5,139.5C 69.6897,135.361 62.3564,129.361 56.5,121.5C 53.9701,117.218 51.6368,112.884 49.5,108.5C 49.5,108.167 49.5,107.833 49.5,107.5C 48.8362,102.841 48.1695,98.1745 47.5,93.5C 47.7683,90.4825 48.1016,87.4825 48.5,84.5C 51.476,70.7139 58.8094,59.8805 70.5,52C 95.0237,40.4718 116.357,44.6384 134.5,64.5 Z"/></g>
<g><path style="opacity:1" fill="#0b1a38" d="M 86.5,51.5 C 111.738,49.1888 128.571,59.8555 137,83.5C 139.009,120.491 121.509,137.658 84.5,135C 56.639,122.761 47.8056,102.261 58,73.5C 64.5258,62.1211 74.0258,54.7878 86.5,51.5 Z"/></g>
<g><path style="opacity:1" fill="#131a36" d="M 113.5,73.5 C 111.763,75.5497 109.763,77.383 107.5,79C 106.552,79.4828 105.552,79.6495 104.5,79.5C 103.167,78.8333 101.833,78.1667 100.5,77.5C 100.037,74.779 99.3705,72.1123 98.5,69.5C 98.4701,68.5028 98.9701,67.8361 100,67.5C 104.772,69.0294 109.272,71.0294 113.5,73.5 Z"/></g>
<g><path style="opacity:1" fill="#121935" d="M 93.5,67.5 C 92.2132,70.698 91.5465,74.0314 91.5,77.5C 89.079,77.8782 86.7457,78.5448 84.5,79.5C 82.5398,77.8437 80.5398,76.177 78.5,74.5C 78.9371,72.9256 79.9371,71.7589 81.5,71C 85.3268,69.2103 89.3268,68.0436 93.5,67.5 Z"/></g>
<g><path style="opacity:1" fill="#838087" d="M 97.5,66.5 C 104.002,67.1116 110.002,69.1116 115.5,72.5C 115.158,73.3382 114.492,73.6716 113.5,73.5C 109.272,71.0294 104.772,69.0294 100,67.5C 98.9701,67.8361 98.4701,68.5028 98.5,69.5C 97.596,68.791 97.2627,67.791 97.5,66.5 Z"/></g>
<g><path style="opacity:1" fill="#87868e" d="M 93.5,66.5 C 93.5,66.8333 93.5,67.1667 93.5,67.5C 89.3268,68.0436 85.3268,69.2103 81.5,71C 79.9371,71.7589 78.9371,72.9256 78.5,74.5C 77.5,74.1667 76.8333,73.5 76.5,72.5C 81.5934,68.9131 87.2601,66.9131 93.5,66.5 Z"/></g>
<g><path style="opacity:1" fill="#dd724b" d="M 97.5,66.5 C 97.2627,67.791 97.596,68.791 98.5,69.5C 99.3705,72.1123 100.037,74.779 100.5,77.5C 97.5,77.5 94.5,77.5 91.5,77.5C 91.5465,74.0314 92.2132,70.698 93.5,67.5C 93.5,67.1667 93.5,66.8333 93.5,66.5C 95.0449,59.947 96.3783,59.947 97.5,66.5 Z"/></g>
<g><path style="opacity:1" fill="#467b96" d="M 162.5,43.5 C 164.948,46.4599 166.781,49.7932 168,53.5C 168.167,59.3333 168.333,65.1667 168.5,71C 168.228,99.1557 168.062,127.322 168,155.5C 166.754,160.383 165.254,165.216 163.5,170C 159.759,172.732 155.759,175.066 151.5,177C 148.964,177.339 146.464,177.839 144,178.5C 115.835,177.197 87.5012,177.197 59,178.5C 55.1875,177.854 51.3542,177.354 47.5,177C 45.0887,175.417 42.422,174.417 39.5,174C 34.0984,167.631 30.7651,159.798 29.5,150.5C 30.4013,151.29 31.0679,152.29 31.5,153.5C 32.0604,155.801 32.5604,158.134 33,160.5C 35.5303,163.063 37.697,165.897 39.5,169C 41.6193,169.098 43.286,169.931 44.5,171.5C 79.4952,172.667 114.495,172.833 149.5,172C 153.707,170.125 157.373,167.625 160.5,164.5C 163.01,161.451 164.51,157.784 165,153.5C 165.667,119.167 165.667,84.8333 165,50.5C 164.722,49.5842 164.222,48.9175 163.5,48.5C 163.5,47.8333 163.167,47.5 162.5,47.5C 162.5,46.1667 162.5,44.8333 162.5,43.5 Z"/></g>
<g><path style="opacity:1" fill="#dd734b" d="M 118.5,74.5 C 117.662,74.8417 117.328,75.5084 117.5,76.5C 114.769,78.9464 112.769,81.9464 111.5,85.5C 109.142,83.4707 106.808,81.4707 104.5,79.5C 105.552,79.6495 106.552,79.4828 107.5,79C 109.763,77.383 111.763,75.5497 113.5,73.5C 114.492,73.6716 115.158,73.3382 115.5,72.5C 121.479,66.8179 122.479,67.4846 118.5,74.5 Z"/></g>
<g><path style="opacity:1" fill="#e07249" d="M 76.5,72.5 C 76.8333,73.5 77.5,74.1667 78.5,74.5C 80.5398,76.177 82.5398,77.8437 84.5,79.5C 82.8564,81.4807 81.1897,83.4807 79.5,85.5C 78.2768,81.9505 76.2768,78.9505 73.5,76.5C 72.2626,73.8381 71.4293,71.1715 71,68.5C 72.7742,69.965 74.6075,71.2983 76.5,72.5 Z"/></g>
<g><path style="opacity:1" fill="#898d97" d="M 73.5,76.5 C 73.2624,78.4044 72.2624,79.7377 70.5,80.5C 70.7376,78.5956 71.7376,77.2623 73.5,76.5 Z"/></g>
<g><path style="opacity:1" fill="#171a35" d="M 117.5,76.5 C 121.173,81.1846 123.173,86.5179 123.5,92.5C 120.193,91.9492 116.86,91.6159 113.5,91.5C 113.747,89.1417 113.081,87.1417 111.5,85.5C 112.769,81.9464 114.769,78.9464 117.5,76.5 Z"/></g>
<g><path style="opacity:1" fill="#111a37" d="M 73.5,76.5 C 76.2768,78.9505 78.2768,81.9505 79.5,85.5C 78.5592,87.0495 77.8925,88.7162 77.5,90.5C 74.2139,91.2071 70.8806,91.5405 67.5,91.5C 68.3012,87.7653 69.3012,84.0986 70.5,80.5C 72.2624,79.7377 73.2624,78.4044 73.5,76.5 Z"/></g>
<g><path style="opacity:1" fill="#81818b" d="M 118.5,74.5 C 121.939,80.0487 124.272,86.0487 125.5,92.5C 124.833,92.5 124.167,92.5 123.5,92.5C 123.173,86.5179 121.173,81.1846 117.5,76.5C 117.328,75.5084 117.662,74.8417 118.5,74.5 Z"/></g>
<g><path style="opacity:1" fill="#94959e" d="M 70.5,80.5 C 69.3012,84.0986 68.3012,87.7653 67.5,91.5C 67.5,92.1667 67.1667,92.5 66.5,92.5C 66.1603,87.8667 67.4936,83.8667 70.5,80.5 Z"/></g>
<g><path style="opacity:1" fill="#4a728a" d="M 163.5,48.5 C 164.222,48.9175 164.722,49.5842 165,50.5C 165.667,84.8333 165.667,119.167 165,153.5C 164.51,157.784 163.01,161.451 160.5,164.5C 161.428,161.546 162.261,158.546 163,155.5C 163.5,119.835 163.667,84.1682 163.5,48.5 Z"/></g>
<g><path style="opacity:1" fill="#f2cca2" d="M 91.5,77.5 C 94.5,77.5 97.5,77.5 100.5,77.5C 101.833,78.1667 103.167,78.8333 104.5,79.5C 106.808,81.4707 109.142,83.4707 111.5,85.5C 113.081,87.1417 113.747,89.1417 113.5,91.5C 113.577,95.2148 113.244,98.8815 112.5,102.5C 112.5,102.833 112.5,103.167 112.5,103.5C 110.529,105.808 108.529,108.142 106.5,110.5C 104.833,111.167 103.167,111.833 101.5,112.5C 97.1779,113.726 92.8445,113.726 88.5,112.5C 87.2921,111.766 85.9587,111.433 84.5,111.5C 83.2141,108.883 81.5475,106.55 79.5,104.5C 78.6373,102.579 77.9707,100.579 77.5,98.5C 77.5,95.8333 77.5,93.1667 77.5,90.5C 77.8925,88.7162 78.5592,87.0495 79.5,85.5C 81.1897,83.4807 82.8564,81.4807 84.5,79.5C 86.7457,78.5448 89.079,77.8782 91.5,77.5 Z"/></g>
<g><path style="opacity:1" fill="#ce926f" d="M 105.5,105.5 C 108.77,100.13 109.27,94.4634 107,88.5C 101.028,81.7521 94.1942,80.7521 86.5,85.5C 85.707,84.6446 86.0403,83.8113 87.5,83C 99.9673,78.2347 107.634,82.4014 110.5,95.5C 110.339,99.6885 108.672,103.022 105.5,105.5 Z"/></g>
<g><path style="opacity:1" fill="#2e5f7f" d="M 140.5,75.5 C 143.745,75.2934 145.745,76.7934 146.5,80C 147.448,80.4828 148.448,80.6495 149.5,80.5C 154.263,99.0698 152.596,117.07 144.5,134.5C 121.41,158.57 95.0764,162.737 65.5,147C 50.5575,134.522 44.3908,118.689 47,99.5C 47.3333,102.833 47.6667,106.167 48,109.5C 48.2784,108.584 48.7784,107.918 49.5,107.5C 49.5,107.833 49.5,108.167 49.5,108.5C 49.421,112.202 49.7543,115.868 50.5,119.5C 53.0936,125.684 55.9269,131.684 59,137.5C 63.6644,139.972 67.8311,143.139 71.5,147C 94.5867,158.045 115.753,155.212 135,138.5C 135.92,135.062 137.587,132.062 140,129.5C 140.49,128.207 140.657,126.873 140.5,125.5C 142.041,124.442 143.041,122.942 143.5,121C 147.409,109.677 147.409,98.5105 143.5,87.5C 142.925,83.3778 141.925,79.3778 140.5,75.5 Z"/></g>
<g><path style="opacity:1" fill="#30678a" d="M 134.5,64.5 C 138.977,64.8088 141.811,67.1421 143,71.5C 143.333,70.8333 143.667,70.1667 144,69.5C 147.805,73.1495 150.638,77.4828 152.5,82.5C 152.659,85.9921 152.659,89.4921 152.5,93C 153.167,93.6667 153.833,94.3333 154.5,95C 153.516,100.317 153.516,105.65 154.5,111C 152.951,116.005 152.118,121.171 152,126.5C 149.891,127.035 149.391,128.035 150.5,129.5C 149.547,133.363 148.214,137.03 146.5,140.5C 145.5,140.5 144.5,140.5 143.5,140.5C 143.52,142.143 142.853,143.476 141.5,144.5C 142.167,144.833 142.833,145.167 143.5,145.5C 141.5,146.5 139.5,147.5 137.5,148.5C 136.147,149.524 135.48,150.857 135.5,152.5C 133.167,152.5 130.833,152.5 128.5,152.5C 128.646,154.942 127.813,155.609 126,154.5C 120.729,155.712 115.562,157.379 110.5,159.5C 105.519,160.165 100.519,160.665 95.5,161C 113.164,161.5 130.83,161.667 148.5,161.5C 148.5,161.833 148.5,162.167 148.5,162.5C 112.996,162.832 77.6627,162.498 42.5,161.5C 59.17,161.667 75.8367,161.5 92.5,161C 81.9675,160.051 72.6342,156.385 64.5,150C 60.5391,149.572 58.2057,147.406 57.5,143.5C 56.1779,143.67 55.0113,143.337 54,142.5C 49.5185,132.389 46.0185,121.889 43.5,111C 44.2127,107.513 44.8793,104.013 45.5,100.5C 44.7079,96.5914 44.3746,92.7581 44.5,89C 46.6091,88.0934 47.9424,86.5934 48.5,84.5C 48.1016,87.4825 47.7683,90.4825 47.5,93.5C 48.1695,98.1745 48.8362,102.841 49.5,107.5C 48.7784,107.918 48.2784,108.584 48,109.5C 47.6667,106.167 47.3333,102.833 47,99.5C 44.3908,118.689 50.5575,134.522 65.5,147C 95.0764,162.737 121.41,158.57 144.5,134.5C 152.596,117.07 154.263,99.0698 149.5,80.5C 148.448,80.6495 147.448,80.4828 146.5,80C 145.745,76.7934 143.745,75.2934 140.5,75.5C 138.754,71.6733 136.754,68.0066 134.5,64.5 Z"/></g>
<g><path style="opacity:1" fill="#28506c" d="M 49.5,108.5 C 51.6368,112.884 53.9701,117.218 56.5,121.5C 57.6803,128.523 61.347,133.856 67.5,137.5C 68.5099,141.013 70.5099,143.847 73.5,146C 79.1511,147.661 84.8178,149.328 90.5,151C 108.361,152.399 123.361,146.566 135.5,133.5C 136.691,130.432 138.358,127.765 140.5,125.5C 140.657,126.873 140.49,128.207 140,129.5C 137.587,132.062 135.92,135.062 135,138.5C 115.753,155.212 94.5867,158.045 71.5,147C 67.8311,143.139 63.6644,139.972 59,137.5C 55.9269,131.684 53.0936,125.684 50.5,119.5C 49.7543,115.868 49.421,112.202 49.5,108.5 Z"/></g>
<g><path style="opacity:1" fill="#24455e" d="M 143.5,87.5 C 147.409,98.5105 147.409,109.677 143.5,121C 143.041,122.942 142.041,124.442 140.5,125.5C 138.358,127.765 136.691,130.432 135.5,133.5C 123.361,146.566 108.361,152.399 90.5,151C 84.8178,149.328 79.1511,147.661 73.5,146C 70.5099,143.847 68.5099,141.013 67.5,137.5C 72.6223,141.456 78.1223,144.789 84,147.5C 92.8571,148.869 101.69,148.703 110.5,147C 115.019,143.946 120.019,141.946 125.5,141C 127.333,137.833 129.833,135.333 133,133.5C 134.558,129.611 136.891,126.278 140,123.5C 141.041,120.044 141.875,116.544 142.5,113C 142.486,111.615 142.152,110.449 141.5,109.5C 143.032,102.257 143.698,94.9237 143.5,87.5 Z"/></g>
<g><path style="opacity:1" fill="#1e354c" d="M 141.5,109.5 C 142.152,110.449 142.486,111.615 142.5,113C 141.875,116.544 141.041,120.044 140,123.5C 136.891,126.278 134.558,129.611 133,133.5C 129.833,135.333 127.333,137.833 125.5,141C 120.019,141.946 115.019,143.946 110.5,147C 101.69,148.703 92.8571,148.869 84,147.5C 78.1223,144.789 72.6223,141.456 67.5,137.5C 61.347,133.856 57.6803,128.523 56.5,121.5C 62.3564,129.361 69.6897,135.361 78.5,139.5C 78.0618,139.435 77.7284,139.601 77.5,140C 78.5,141 79.5,142 80.5,143C 97.3735,148.691 113.04,146.358 127.5,136C 130.237,132.933 132.571,129.599 134.5,126C 134.164,124.97 133.497,124.47 132.5,124.5C 136.283,119.929 139.283,114.929 141.5,109.5 Z"/></g>
<g><path style="opacity:1" fill="#1d2c41" d="M 132.5,124.5 C 133.497,124.47 134.164,124.97 134.5,126C 132.571,129.599 130.237,132.933 127.5,136C 113.04,146.358 97.3735,148.691 80.5,143C 79.5,142 78.5,141 77.5,140C 77.7284,139.601 78.0618,139.435 78.5,139.5C 83.6953,140.903 89.0286,141.57 94.5,141.5C 109.928,141.782 122.595,136.115 132.5,124.5 Z"/></g>
<g><path style="opacity:1" fill="#8a8c94" d="M 82.5,120.5 C 86.1007,121.463 89.7674,122.13 93.5,122.5C 93.5,122.833 93.5,123.167 93.5,123.5C 89.3526,123.874 85.6859,122.874 82.5,120.5 Z"/></g>
<g><path style="opacity:1" fill="#8c898f" d="M 110.5,119.5 C 106.775,122.521 102.441,124.188 97.5,124.5C 97.2322,122.901 97.5655,121.568 98.5,120.5C 98.62,121.586 99.2867,122.253 100.5,122.5C 103.851,121.494 107.184,120.494 110.5,119.5 Z"/></g>
<g><path style="opacity:1" fill="#85838a" d="M 113.5,116.5 C 114.492,116.328 115.158,116.662 115.5,117.5C 113.833,118.167 112.167,118.833 110.5,119.5C 111.167,118.167 112.167,117.167 113.5,116.5 Z"/></g>
<g><path style="opacity:1" fill="#807b81" d="M 77.5,115.5 C 79.3603,116.939 81.027,118.605 82.5,120.5C 80.0202,119.758 77.6869,118.758 75.5,117.5C 75.8333,116.5 76.5,115.833 77.5,115.5 Z"/></g>
<g><path style="opacity:1" fill="#e1774d" d="M 88.5,112.5 C 92.8445,113.726 97.1779,113.726 101.5,112.5C 99.722,114.829 98.722,117.496 98.5,120.5C 97.5655,121.568 97.2322,122.901 97.5,124.5C 95.8457,129.727 94.5123,129.394 93.5,123.5C 93.5,123.167 93.5,122.833 93.5,122.5C 92.6766,119.539 92.01,116.539 91.5,113.5C 90.209,113.737 89.209,113.404 88.5,112.5 Z"/></g>
<g><path style="opacity:1" fill="#111835" d="M 84.5,111.5 C 85.9587,111.433 87.2921,111.766 88.5,112.5C 89.209,113.404 90.209,113.737 91.5,113.5C 92.01,116.539 92.6766,119.539 93.5,122.5C 89.7674,122.13 86.1007,121.463 82.5,120.5C 81.027,118.605 79.3603,116.939 77.5,115.5C 79.8333,114.167 82.1667,112.833 84.5,111.5 Z"/></g>
<g><path style="opacity:1" fill="#75737a" d="M 119.5,111.5 C 119.443,112.609 119.11,113.609 118.5,114.5C 117.662,114.158 117.328,113.492 117.5,112.5C 118.167,112.167 118.833,111.833 119.5,111.5 Z"/></g>
<g><path style="opacity:1" fill="#131a36" d="M 106.5,110.5 C 108.833,112.5 111.167,114.5 113.5,116.5C 112.167,117.167 111.167,118.167 110.5,119.5C 107.184,120.494 103.851,121.494 100.5,122.5C 99.2867,122.253 98.62,121.586 98.5,120.5C 98.722,117.496 99.722,114.829 101.5,112.5C 103.167,111.833 104.833,111.167 106.5,110.5 Z"/></g>
<g><path style="opacity:1" fill="#898a94" d="M 123.5,96.5 C 124.167,96.5 124.833,96.5 125.5,96.5C 125.402,102.348 123.402,107.348 119.5,111.5C 122.054,106.837 123.387,101.837 123.5,96.5 Z"/></g>
<g><path style="opacity:1" fill="#d5704a" d="M 112.5,103.5 C 112.884,107.272 114.55,110.272 117.5,112.5C 117.328,113.492 117.662,114.158 118.5,114.5C 120.074,118.009 119.074,119.009 115.5,117.5C 115.158,116.662 114.492,116.328 113.5,116.5C 111.167,114.5 108.833,112.5 106.5,110.5C 108.529,108.142 110.529,105.808 112.5,103.5 Z"/></g>
<g><path style="opacity:1" fill="#dd724b" d="M 79.5,104.5 C 81.5475,106.55 83.2141,108.883 84.5,111.5C 82.1667,112.833 79.8333,114.167 77.5,115.5C 76.5,115.833 75.8333,116.5 75.5,117.5C 71.1019,120.065 70.4352,119.065 73.5,114.5C 74.3382,114.158 74.6716,113.492 74.5,112.5C 76.9501,110.371 78.6167,107.704 79.5,104.5 Z"/></g>
<g><path style="opacity:1" fill="#8c8b92" d="M 66.5,96.5 C 66.8333,96.5 67.1667,96.5 67.5,96.5C 67.6871,102.865 70.0205,108.199 74.5,112.5C 74.6716,113.492 74.3382,114.158 73.5,114.5C 68.9494,109.393 66.616,103.393 66.5,96.5 Z"/></g>
<g><path style="opacity:1" fill="#cf906d" d="M 105.5,105.5 C 104.657,107.173 103.324,108.34 101.5,109C 91.2354,111.952 84.4021,108.452 81,98.5C 80.3482,95.406 80.6815,92.406 82,89.5C 82.0549,106.437 89.8883,111.77 105.5,105.5 Z"/></g>
<g><path style="opacity:1" fill="#0f1937" d="M 123.5,96.5 C 123.387,101.837 122.054,106.837 119.5,111.5C 118.833,111.833 118.167,112.167 117.5,112.5C 114.55,110.272 112.884,107.272 112.5,103.5C 112.5,103.167 112.5,102.833 112.5,102.5C 114.795,98.2688 118.462,96.2688 123.5,96.5 Z"/></g>
<g><path style="opacity:1" fill="#141b37" d="M 67.5,96.5 C 70.802,97.2937 74.1353,97.9604 77.5,98.5C 77.9707,100.579 78.6373,102.579 79.5,104.5C 78.6167,107.704 76.9501,110.371 74.5,112.5C 70.0205,108.199 67.6871,102.865 67.5,96.5 Z"/></g>
<g><path style="opacity:1" fill="#e4794d" d="M 113.5,91.5 C 116.86,91.6159 120.193,91.9492 123.5,92.5C 124.167,92.5 124.833,92.5 125.5,92.5C 126.263,93.2679 127.263,93.7679 128.5,94C 127.429,94.8518 126.429,95.6851 125.5,96.5C 124.833,96.5 124.167,96.5 123.5,96.5C 118.462,96.2688 114.795,98.2688 112.5,102.5C 113.244,98.8815 113.577,95.2148 113.5,91.5 Z"/></g>
<g><path style="opacity:1" fill="#de754c" d="M 77.5,90.5 C 77.5,93.1667 77.5,95.8333 77.5,98.5C 74.1353,97.9604 70.802,97.2937 67.5,96.5C 67.1667,96.5 66.8333,96.5 66.5,96.5C 61.1667,95.1667 61.1667,93.8333 66.5,92.5C 67.1667,92.5 67.5,92.1667 67.5,91.5C 70.8806,91.5405 74.2139,91.2071 77.5,90.5 Z"/></g>
<g><path style="opacity:1" fill="#d2916c" d="M 98.5,102.5 C 97.7659,103.708 97.4326,105.041 97.5,106.5C 96.1667,106.5 94.8333,106.5 93.5,106.5C 93.6495,105.448 93.4828,104.448 93,103.5C 89.7417,102.446 88.9084,100.446 90.5,97.5C 91.6086,98.5896 92.6086,98.5896 93.5,97.5C 91.1751,96.348 89.8417,94.5147 89.5,92C 90.6838,89.3438 92.0171,86.8438 93.5,84.5C 94.8333,84.5 96.1667,84.5 97.5,84.5C 97.5,85.5 97.5,86.5 97.5,87.5C 99.9484,87.0101 101.615,87.8434 102.5,90C 102.266,91.7324 101.266,92.5658 99.5,92.5C 97.8453,91.772 96.1786,91.6053 94.5,92C 97.2204,92.7967 99.7204,93.9633 102,95.5C 103.313,99.2051 102.146,101.538 98.5,102.5 Z"/></g>
<g><path style="opacity:1" fill="#eeb182" d="M 98.5,102.5 C 97.1411,103.007 96.1411,104.007 95.5,105.5C 94.7071,102.874 93.0405,101.04 90.5,100C 91.9504,99.8829 93.4504,100.05 95,100.5C 98.1555,100.024 97.9888,99.6911 94.5,99.5C 94.627,96.755 93.4603,94.755 91,93.5C 90.2888,91.6332 90.7888,90.1332 92.5,89C 95.3787,88.1264 98.0454,88.4597 100.5,90C 98.9651,90.4962 97.4651,90.3295 96,89.5C 94.5,89.6667 93.6667,90.5 93.5,92C 95.8387,93.7176 98.3387,95.2176 101,96.5C 101.667,97.5 101.667,98.5 101,99.5C 99.955,100.373 99.1217,101.373 98.5,102.5 Z"/></g>
<g><path style="opacity:1" fill="#325064" d="M 162.5,146.5 C 163.274,156.965 158.94,164.298 149.5,168.5C 115.505,169.667 81.5049,169.833 47.5,169C 41.4528,167.783 37.4528,164.283 35.5,158.5C 37.3684,159.263 39.0351,160.263 40.5,161.5C 42.8442,164.342 45.8442,166.175 49.5,167C 80.8333,167.667 112.167,167.667 143.5,167C 146.29,166.439 148.623,165.106 150.5,163C 149.906,162.536 149.239,162.369 148.5,162.5C 148.5,162.167 148.5,161.833 148.5,161.5C 155.965,159.037 160.632,154.037 162.5,146.5 Z"/></g>
<g><path style="opacity:1" fill="#3a637a" d="M 162.5,47.5 C 163.167,47.5 163.5,47.8333 163.5,48.5C 163.667,84.1682 163.5,119.835 163,155.5C 162.261,158.546 161.428,161.546 160.5,164.5C 157.373,167.625 153.707,170.125 149.5,172C 114.495,172.833 79.4952,172.667 44.5,171.5C 43.286,169.931 41.6193,169.098 39.5,169C 37.697,165.897 35.5303,163.063 33,160.5C 32.5604,158.134 32.0604,155.801 31.5,153.5C 33.0627,154.945 34.396,156.611 35.5,158.5C 37.4528,164.283 41.4528,167.783 47.5,169C 81.5049,169.833 115.505,169.667 149.5,168.5C 158.94,164.298 163.274,156.965 162.5,146.5C 162.5,113.5 162.5,80.5 162.5,47.5 Z"/></g>
<g><path style="opacity:1" fill="#2c4152" d="M 40.5,161.5 C 41.1667,161.5 41.8333,161.5 42.5,161.5C 77.6627,162.498 112.996,162.832 148.5,162.5C 149.239,162.369 149.906,162.536 150.5,163C 148.623,165.106 146.29,166.439 143.5,167C 112.167,167.667 80.8333,167.667 49.5,167C 45.8442,166.175 42.8442,164.342 40.5,161.5 Z"/></g>
</svg>
